<?xml version="1.0" encoding="UTF-8" standalone="no"?>
<!DOCTYPE svg PUBLIC "-//W3C//DTD SVG 1.1//EN" "http://www.w3.org/Graphics/SVG/1.1/DTD/svg11.dtd">
<svg width="100%" height="100%" viewBox="0 0 2048 2048" version="1.1" xmlns="http://www.w3.org/2000/svg" xmlns:xlink="http://www.w3.org/1999/xlink" xml:space="preserve" xmlns:serif="http://www.serif.com/" style="fill-rule:evenodd;clip-rule:evenodd;stroke-linejoin:round;stroke-miterlimit:2;">
    <g id="Background" transform="matrix(1.917969,0,0,1.917969,67,133)">
        <path d="M366.504,670.993C373.189,671.135 373.182,671.121 536.5,671.121C644.555,671.121 644.634,670.835 657.567,673.176C671.686,675.732 688.145,687.089 696.169,699.756C702.826,710.264 702.125,710.583 705.586,722.47C707.106,727.691 706.87,727.816 706.878,890.5C706.878,904.123 706.796,904.028 705.825,917.54C705.637,920.158 701.149,934.36 698.193,938.258C694.129,943.617 690.119,953.777 671.73,962.983C657.737,969.989 641.216,969.987 638.5,969.986C384.437,969.955 384.445,970.325 368.498,969.987C355.009,969.701 355.326,967.98 348.438,966.913C345.413,966.445 332.594,960.543 329.767,958.178C329.204,957.706 323.029,952.539 322.75,952.252C321.065,950.517 303.068,934.74 303.08,902.5C303.138,747.924 303.007,747.936 303.078,734.496C303.092,731.906 303.914,732.084 304.024,729.497C305.348,698.408 330.375,682.498 333.637,680.77C353.524,670.232 354.709,673.919 366.504,670.993Z" style="fill:rgb(90,242,253);fill-opacity:1;"/>
        <path d="M1011.725,242.285L1009.884,244.471C1010.009,245.418 1011.343,246.476 1011.823,258.373L1012.352,259.655C1013.873,260.904 1013.006,261.18 1011.934,262.847C1011.707,263.91 1011.253,266.039 1011.745,276.435C1011.821,278.027 1012.337,277.677 1013.652,278.469C1012.321,279.295 1011.792,278.913 1011.707,280.537C1011.663,281.395 1011.679,287.004 1011.68,287.566C1011.598,295.127 1012.086,295.147 1010.06,302.41C1006.004,310.223 1003.872,308.895 1002.812,312.627C1002.77,312.776 1002.294,314.452 1002.311,314.5C1002.517,315.088 1003.511,315.144 1003.716,315.733C998.139,321.372 997.722,320.858 996.777,321.775C993.927,324.545 993.661,324.152 990.733,326.77C989.595,327.789 979.002,337.264 976.223,339.179C966.328,345.998 963.364,350.46 957.775,353.956C955.24,355.541 913.234,390.763 909.78,392.951C904.399,396.359 905.47,397.549 900.22,401.177C887.765,409.783 888.718,410.986 887.544,411.57C880.346,415.147 860.253,438.159 839.441,441.079C837.618,441.335 822.292,443.485 816.434,441.675C811.475,440.144 803.97,440.903 789.738,430.21C787.706,428.684 779.575,422.574 767.8,407.238C761.401,398.904 760.991,399.264 760.447,398.533C747.42,381.051 701.436,326.148 698.721,322.367C698.581,322.173 677.244,295.771 676.751,295.257C674.012,292.397 629.69,237.277 626.333,233.647C625.873,233.15 621.992,228.952 620.823,227.224C613.463,216.333 612.45,217.175 611.826,216.225C606.656,208.352 598.356,199.281 595.346,187.56C583.618,141.88 615.223,121.648 631.762,107.803C638.344,102.292 638.17,102.242 638.78,101.827C639.306,101.468 644.136,98.175 645.279,97.233C650.758,92.718 713.491,41.023 713.78,40.818C728.322,30.545 743.14,14.901 757.621,7.742C759.188,6.967 769.884,1.68 778.465,1.168C806.764,-0.52 816.368,9.8 821.39,12.672C827.983,16.442 827.34,17.225 835.997,26.079C836.351,26.442 888.835,92.01 892.379,94.689C894.442,96.248 893.508,96.885 895.227,98.753C899.841,103.768 904.298,110.582 905.774,112.263C917.814,125.971 993.555,219.883 993.814,220.084C996.315,222.023 1007.802,237.896 1011.725,242.285Z" style="fill:rgb(253,234,91);fill-opacity:1;"/>
        <path d="M425.013,177.503C425.013,203.36 418.203,208.562 412.603,219.566C411.216,222.29 404.525,229.886 403.772,230.741C402.238,232.482 399.486,237.67 394.254,243.269C393.006,244.604 393.342,244.843 380.319,261.378C377.39,265.097 359.37,287.975 344.225,308.263C343.693,308.975 330.919,325.044 323.917,334.763C323.109,335.884 322.636,335.496 313.304,348.382C311.832,350.414 311.518,350.068 294.196,373.252C287.051,382.815 280.055,391.202 278.782,392.728C276.567,395.384 251.134,430.488 240.226,441.225C227.39,453.86 213.089,455.766 210.449,456.117C207.698,456.484 207.883,458.184 192.478,457.752C191.8,457.733 178.22,454.88 172.617,452.263C156.883,444.914 138.655,427.422 133.427,424.609C132.569,424.147 133.076,423.61 123.76,417.198C123.42,416.965 117.759,412.134 104.615,402.316C93.57,394.066 82.314,384.837 61.736,369.211C49.456,359.886 49.254,359.685 48.287,358.723C42.497,352.96 13.288,339.808 1.386,301.538C0.561,298.883 0.671,278.357 7.232,270.287C10.219,266.611 16.108,255.383 24.229,246.272C24.837,245.59 24.135,245.18 31.206,237.238C32.53,235.751 39.039,225.785 43.745,220.727C45.581,218.753 110.933,132.854 122.219,119.263C124.477,116.544 123.647,116.029 127.758,111.754C130.95,108.434 176.631,46.877 185.746,37.746C201.39,22.075 210.246,22.249 219.429,19.326C221.483,18.672 234.413,18.995 236.497,19.004C251.929,19.071 266.243,29.832 275.237,35.808C276.279,36.501 275.916,36.839 287.394,45.659C296.843,52.92 402.956,134.458 405.241,136.758C412.644,144.207 416.946,152.843 417.716,154.39C420.701,160.382 422.738,162.129 423.956,172.449C424.005,172.859 424.125,173.876 425.013,177.503Z" style="fill:rgb(253,89,174);fill-opacity:1;"/>
        <path d="M498.476,292.031C507.982,288.646 508.939,285.265 523.44,280.352C525.147,279.774 550.094,270.078 578.531,271.197C579.494,271.234 579.465,271.47 590.528,272.233C592.914,272.398 616.763,277.669 625.722,282.016C640.964,289.412 641.486,288.512 648.705,294.235C650.41,295.587 653.174,296.265 655.863,299.135C657.142,300.5 657.676,299.891 673.251,314.762C674.012,315.489 673.977,315.368 674.749,316.012C674.803,316.711 673.773,316.883 674.911,318.102C675.494,318.727 675.124,318.911 681.673,326.368C683.142,328.04 682.475,328.383 683.999,330.101C684.109,330.225 684.137,330.051 685.95,329.396C687.971,334.041 720.229,373.898 708.886,437.553C701.924,476.62 672.907,512.159 649.735,525.807C648.574,523.331 648.61,523.331 648.816,520.539C651.707,481.344 631.243,435.31 604.894,412.07C594.874,403.232 589.471,397.761 585.714,397.814C580.52,359.356 553.905,330.998 553.04,329.868C541.039,314.205 505.778,293.104 500.5,293.366C499.568,293.412 499.567,293.411 499.5,293.367C498.774,292.888 499.257,292.547 498.476,292.031Z" style="fill:rgb(253,234,91);fill-opacity:1;"/>
        <path d="M647.021,530.482C640.228,597.077 583.871,652.016 516.527,655.868C513.506,654.539 513.409,654.729 500.492,654.737C494.672,654.741 494.899,655.743 494.473,655.873C493.832,656.067 493.106,655.595 492.465,655.79C488.008,654.546 464.791,654.537 433.241,635.95C392.287,611.823 370.153,568.518 366.058,532.545C366.66,532.657 366.898,531.295 367.5,531.406C369.359,531.749 382.849,546.561 417.559,555.221C476.431,569.909 520.773,539.625 521.327,539.168C530.18,544.303 585.115,562.508 639.738,531.891C645.519,528.651 645.943,528.191 646.991,529.542C647.183,529.79 646.829,530.234 647.021,530.482Z" style="fill:rgb(90,242,253);fill-opacity:1;"/>
        <path d="M498.476,292.031C498.041,292.284 498.032,291.747 497.566,292.017C496.833,292.442 497.274,292.823 496.5,293.178C496.154,293.337 495.7,292.837 495.368,293.024C494.81,293.339 495.144,293.693 489.154,298.079C454.989,323.098 437.632,359.661 433.749,392.207C433.028,392.691 432.308,393.176 431.588,393.66C393.947,418.809 381.923,441.048 370.289,472.415C365.573,485.133 364.629,502.816 364.486,505.499C363.882,516.804 362.964,516.777 364.446,524.505C364.876,526.746 364.255,526.595 363.276,528.731C352.569,518.503 350.53,520.348 335.205,497.736C328.357,487.631 329.256,487.195 323.663,476.41C319.603,468.58 320.349,468.36 315.348,451.556C314.435,448.491 311.018,419.995 312.282,416.408C314.765,409.362 309.536,406.666 320.971,372.618C321.385,371.384 330.395,350.469 336.306,344.325C339.444,341.063 341.34,334.402 358.354,318.342C361.473,315.398 387.291,294.925 409.425,290.003C412.758,289.262 412.654,289.006 426.473,285.41C431.153,284.192 464.316,282.391 475.412,285.919C483.437,288.471 483.596,287.63 491.579,290.307C492.113,290.486 492.09,290.461 498.476,292.031Z" style="fill:rgb(253,90,174);fill-opacity:1;"/>
        <path d="M434.672,393.337C438.458,393.691 442.036,390.205 444.708,388.914C511.806,356.492 575.985,389.386 584.884,399.417C597.68,494.591 527.885,532.195 521.327,539.168C520.897,538.959 481.672,524.195 456.928,486.21C427.919,441.679 435.323,402.915 434.672,393.337Z" style="fill:rgb(252,252,252);"/>
        <path d="M433.749,392.207C434.056,392.583 434.364,392.96 434.672,393.337C435.323,402.915 427.919,441.679 456.928,486.21C481.672,524.195 520.897,538.959 521.327,539.168C520.773,539.625 476.431,569.909 417.559,555.221C382.849,546.561 369.359,531.749 367.5,531.406C366.898,531.295 366.66,532.657 366.058,532.545C365.946,532.267 366.645,531.909 363.276,528.731C364.255,526.595 364.876,526.746 364.446,524.505C362.964,516.777 363.882,516.804 364.486,505.499C364.629,502.816 365.573,485.133 370.289,472.415C381.923,441.048 393.947,418.809 431.588,393.66C432.308,393.176 433.028,392.691 433.749,392.207Z" style="fill:rgb(208,104,253);fill-opacity:1;"/>
        <path d="M585.714,397.814C589.471,397.761 594.874,403.232 604.894,412.07C631.243,435.31 651.707,481.344 648.816,520.539C648.61,523.331 648.574,523.331 649.735,525.807C648.183,527.506 647.529,527.172 647.021,530.482C646.829,530.234 647.183,529.79 646.991,529.542C645.943,528.191 645.519,528.651 639.738,531.891C585.115,562.508 530.18,544.303 521.327,539.168C527.885,532.195 597.68,494.591 584.884,399.417L585.714,397.814Z" style="fill:rgb(136,254,123);"/>
        <path d="M498.476,292.031C499.257,292.547 498.774,292.888 499.5,293.367C499.567,293.411 499.568,293.412 500.5,293.366C505.778,293.104 541.039,314.205 553.04,329.868C553.905,330.998 580.52,359.356 585.714,397.814L584.884,399.417C575.985,389.386 511.806,356.492 444.708,388.914C442.036,390.205 438.458,393.691 434.672,393.337C434.364,392.96 434.056,392.583 433.749,392.207C437.632,359.661 454.989,323.098 489.154,298.079C495.144,293.693 494.81,293.339 495.368,293.024C495.7,292.837 496.154,293.337 496.5,293.178C497.274,292.823 496.833,292.442 497.566,292.017C498.032,291.747 498.041,292.284 498.476,292.031Z" style="fill:rgb(253,153,104);"/>
        <path d="M1013.981,245.216C1016.662,248.69 1020.433,256.31 1020.928,257.31C1024.124,263.767 1022.717,284.15 1022.602,284.535C1020.972,289.979 1020.636,301.172 1003.716,315.733C1003.511,315.144 1002.517,315.088 1002.311,314.5C1002.294,314.452 1002.77,312.776 1002.812,312.627C1003.872,308.895 1006.004,310.223 1010.06,302.41C1012.086,295.147 1011.598,295.127 1011.68,287.566C1011.679,287.004 1011.663,281.395 1011.707,280.537C1011.792,278.913 1012.321,279.295 1013.652,278.469C1012.337,277.677 1011.821,278.027 1011.745,276.435C1011.253,266.039 1011.707,263.91 1011.934,262.847C1013.006,261.18 1013.873,260.904 1012.352,259.655L1011.823,258.373C1011.343,246.476 1010.009,245.418 1009.884,244.471L1011.725,242.285L1013.981,245.216Z" style="fill:rgb(254,236,87);fill-opacity:1;"/>
        <path d="M492.465,655.79C493.106,655.595 493.832,656.067 494.473,655.873C494.899,655.743 494.672,654.741 500.492,654.737C513.409,654.729 513.506,654.539 516.527,655.868C509.802,658.195 498.038,657.078 495.589,656.291C495.348,656.214 495.004,656.103 492.465,655.79Z" style="fill:rgb(186,238,248);fill-opacity:0.91;"/>
        <path d="M674.749,316.012C676.642,317.029 682.739,322.233 685.95,329.396C684.137,330.051 684.109,330.225 683.999,330.101C682.475,328.383 683.142,328.04 681.673,326.368C675.124,318.911 675.494,318.727 674.911,318.102C673.773,316.883 674.803,316.711 674.749,316.012Z" style="fill:rgb(253,231,181);fill-opacity:0.99;"/>
    </g>
</svg>
